<svg id="visual" viewBox="0 0 1000 150" width="1000" height="150" xmlns="http://www.w3.org/2000/svg" xmlns:xlink="http://www.w3.org/1999/xlink" version="1.1"><rect x="0" y="0" width="1000" height="150" fill="#f1f1f1"></rect><defs><linearGradient id="grad1_0" x1="85%" y1="0%" x2="100%" y2="100%"><stop offset="-83.33333333333333%" stop-color="#1a1d4e" stop-opacity="1"></stop><stop offset="183.33333333333331%" stop-color="#1a1d4e" stop-opacity="1"></stop></linearGradient></defs><defs><linearGradient id="grad1_1" x1="85%" y1="0%" x2="100%" y2="100%"><stop offset="-83.33333333333333%" stop-color="#1a1d4e" stop-opacity="1"></stop><stop offset="183.33333333333331%" stop-color="#45416d" stop-opacity="1"></stop></linearGradient></defs><defs><linearGradient id="grad1_2" x1="85%" y1="0%" x2="100%" y2="100%"><stop offset="-83.33333333333333%" stop-color="#6e698c" stop-opacity="1"></stop><stop offset="183.33333333333331%" stop-color="#45416d" stop-opacity="1"></stop></linearGradient></defs><defs><linearGradient id="grad1_3" x1="85%" y1="0%" x2="100%" y2="100%"><stop offset="-83.33333333333333%" stop-color="#6e698c" stop-opacity="1"></stop><stop offset="183.33333333333331%" stop-color="#9894ad" stop-opacity="1"></stop></linearGradient></defs><defs><linearGradient id="grad1_4" x1="85%" y1="0%" x2="100%" y2="100%"><stop offset="-83.33333333333333%" stop-color="#c4c2ce" stop-opacity="1"></stop><stop offset="183.33333333333331%" stop-color="#9894ad" stop-opacity="1"></stop></linearGradient></defs><defs><linearGradient id="grad1_5" x1="85%" y1="0%" x2="100%" y2="100%"><stop offset="-83.33333333333333%" stop-color="#c4c2ce" stop-opacity="1"></stop><stop offset="183.33333333333331%" stop-color="#f1f1f1" stop-opacity="1"></stop></linearGradient></defs><defs><linearGradient id="grad2_0" x1="0%" y1="0%" x2="15%" y2="100%"><stop offset="-83.33333333333333%" stop-color="#1a1d4e" stop-opacity="1"></stop><stop offset="183.33333333333331%" stop-color="#1a1d4e" stop-opacity="1"></stop></linearGradient></defs><defs><linearGradient id="grad2_1" x1="0%" y1="0%" x2="15%" y2="100%"><stop offset="-83.33333333333333%" stop-color="#45416d" stop-opacity="1"></stop><stop offset="183.33333333333331%" stop-color="#1a1d4e" stop-opacity="1"></stop></linearGradient></defs><defs><linearGradient id="grad2_2" x1="0%" y1="0%" x2="15%" y2="100%"><stop offset="-83.33333333333333%" stop-color="#45416d" stop-opacity="1"></stop><stop offset="183.33333333333331%" stop-color="#6e698c" stop-opacity="1"></stop></linearGradient></defs><defs><linearGradient id="grad2_3" x1="0%" y1="0%" x2="15%" y2="100%"><stop offset="-83.33333333333333%" stop-color="#9894ad" stop-opacity="1"></stop><stop offset="183.33333333333331%" stop-color="#6e698c" stop-opacity="1"></stop></linearGradient></defs><defs><linearGradient id="grad2_4" x1="0%" y1="0%" x2="15%" y2="100%"><stop offset="-83.33333333333333%" stop-color="#9894ad" stop-opacity="1"></stop><stop offset="183.33333333333331%" stop-color="#c4c2ce" stop-opacity="1"></stop></linearGradient></defs><defs><linearGradient id="grad2_5" x1="0%" y1="0%" x2="15%" y2="100%"><stop offset="-83.33333333333333%" stop-color="#f1f1f1" stop-opacity="1"></stop><stop offset="183.33333333333331%" stop-color="#c4c2ce" stop-opacity="1"></stop></linearGradient></defs><g transform="translate(1000, 0)"><path d="M0 150C-14.6 146.1 -29.2 142.3 -45.1 138.9C-61 135.4 -78.3 132.5 -88.2 121.4C-98 110.2 -100.5 90.9 -105.2 76.4C-109.9 62 -116.7 52.4 -124.6 40.5C-132.4 28.6 -141.2 14.3 -150 0L0 0Z" fill="#dad9e0"></path><path d="M0 125C-12.2 121.8 -24.3 118.6 -37.6 115.7C-50.9 112.9 -65.3 110.4 -73.5 101.1C-81.7 91.8 -83.7 75.7 -87.6 63.7C-91.5 51.6 -97.3 43.7 -103.8 33.7C-110.4 23.8 -117.7 11.9 -125 0L0 0Z" fill="#aeabbe"></path><path d="M0 100C-9.7 97.4 -19.5 94.8 -30.1 92.6C-40.7 90.3 -52.2 88.3 -58.8 80.9C-65.4 73.5 -67 60.6 -70.1 50.9C-73.2 41.3 -77.8 34.9 -83.1 27C-88.3 19 -94.1 9.5 -100 0L0 0Z" fill="#837f9c"></path><path d="M0 75C-7.3 73.1 -14.6 71.1 -22.6 69.4C-30.5 67.7 -39.2 66.2 -44.1 60.7C-49 55.1 -50.2 45.4 -52.6 38.2C-54.9 31 -58.4 26.2 -62.3 20.2C-66.2 14.3 -70.6 7.1 -75 0L0 0Z" fill="#59557c"></path><path d="M0 50C-4.9 48.7 -9.7 47.4 -15 46.3C-20.3 45.1 -26.1 44.2 -29.4 40.5C-32.7 36.7 -33.5 30.3 -35.1 25.5C-36.6 20.7 -38.9 17.5 -41.5 13.5C-44.1 9.5 -47.1 4.8 -50 0L0 0Z" fill="#302f5d"></path><path d="M0 25C-2.4 24.4 -4.9 23.7 -7.5 23.1C-10.2 22.6 -13.1 22.1 -14.7 20.2C-16.3 18.4 -16.7 15.1 -17.5 12.7C-18.3 10.3 -19.5 8.7 -20.8 6.7C-22.1 4.8 -23.5 2.4 -25 0L0 0Z" fill="#1a1d4e"></path></g><g transform="translate(0, 150)"><path d="M0 -150C17.1 -150.6 34.1 -151.2 46.4 -142.7C58.6 -134.2 65.9 -116.6 77 -106C88.1 -95.4 103 -91.8 114.1 -82.9C125.2 -73.9 132.5 -59.5 137.9 -44.8C143.3 -30.1 146.6 -15 150 0L0 0Z" fill="#dad9e0"></path><path d="M0 -125C14.2 -125.5 28.5 -126 38.6 -118.9C48.8 -111.8 54.9 -97.1 64.2 -88.3C73.4 -79.5 85.8 -76.5 95.1 -69.1C104.3 -61.6 110.5 -49.6 114.9 -37.3C119.4 -25.1 122.2 -12.5 125 0L0 0Z" fill="#aeabbe"></path><path d="M0 -100C11.4 -100.4 22.8 -100.8 30.9 -95.1C39 -89.4 43.9 -77.7 51.3 -70.7C58.7 -63.6 68.6 -61.2 76 -55.3C83.5 -49.3 88.4 -39.7 91.9 -29.9C95.5 -20.1 97.8 -10 100 0L0 0Z" fill="#837f9c"></path><path d="M0 -75C8.5 -75.3 17.1 -75.6 23.2 -71.3C29.3 -67.1 32.9 -58.3 38.5 -53C44.1 -47.7 51.5 -45.9 57 -41.4C62.6 -37 66.3 -29.8 69 -22.4C71.6 -15 73.3 -7.5 75 0L0 0Z" fill="#59557c"></path><path d="M0 -50C5.7 -50.2 11.4 -50.4 15.5 -47.6C19.5 -44.7 22 -38.9 25.7 -35.3C29.4 -31.8 34.3 -30.6 38 -27.6C41.7 -24.6 44.2 -19.8 46 -14.9C47.8 -10 48.9 -5 50 0L0 0Z" fill="#302f5d"></path><path d="M0 -25C2.8 -25.1 5.7 -25.2 7.7 -23.8C9.8 -22.4 11 -19.4 12.8 -17.7C14.7 -15.9 17.2 -15.3 19 -13.8C20.9 -12.3 22.1 -9.9 23 -7.5C23.9 -5 24.4 -2.5 25 0L0 0Z" fill="#1a1d4e"></path></g></svg>