<svg id="visual" viewBox="0 0 1000 150" width="1000" height="150" xmlns="http://www.w3.org/2000/svg" xmlns:xlink="http://www.w3.org/1999/xlink" version="1.1"><rect x="0" y="0" width="1000" height="150" fill="#333333"></rect><path d="M0 50L41.7 56.7C83.3 63.3 166.7 76.7 250 83.8C333.3 91 416.7 92 500 82.7C583.3 73.3 666.7 53.7 750 56.8C833.3 60 916.7 86 958.3 99L1000 112L1000 151L958.3 151C916.7 151 833.3 151 750 151C666.7 151 583.3 151 500 151C416.7 151 333.3 151 250 151C166.7 151 83.3 151 41.7 151L0 151Z" fill="#f1f1f1" stroke-linecap="round" stroke-linejoin="miter"></path></svg>