<svg id="visual" viewBox="0 0 1000 150" width="1000" height="150" xmlns="http://www.w3.org/2000/svg" xmlns:xlink="http://www.w3.org/1999/xlink" version="1.1"><rect x="0" y="0" width="1000" height="150" fill="#f1f1f1"></rect><path d="M0 93L41.7 93.8C83.3 94.7 166.7 96.3 250 90.2C333.3 84 416.7 70 500 73.3C583.3 76.7 666.7 97.3 750 100C833.3 102.7 916.7 87.3 958.3 79.7L1000 72L1000 151L958.3 151C916.7 151 833.3 151 750 151C666.7 151 583.3 151 500 151C416.7 151 333.3 151 250 151C166.7 151 83.3 151 41.7 151L0 151Z" fill="#092d4d" stroke-linecap="round" stroke-linejoin="miter"></path></svg>