<svg id="visual" viewBox="0 0 1000 150" width="1000" height="150" xmlns="http://www.w3.org/2000/svg" xmlns:xlink="http://www.w3.org/1999/xlink" version="1.1"><rect x="0" y="0" width="1000" height="150" fill="#092d4d"></rect><path d="M0 71L41.7 73.7C83.3 76.3 166.7 81.7 250 79.7C333.3 77.7 416.7 68.3 500 60C583.3 51.7 666.7 44.3 750 47C833.3 49.7 916.7 62.3 958.3 68.7L1000 75L1000 151L958.3 151C916.7 151 833.3 151 750 151C666.7 151 583.3 151 500 151C416.7 151 333.3 151 250 151C166.7 151 83.3 151 41.7 151L0 151Z" fill="#333333" stroke-linecap="round" stroke-linejoin="miter"></path></svg>